<svg xmlns="http://www.w3.org/2000/svg" width="800" height="400">
  <defs>
    <linearGradient id="bg" x1="0%" y1="0%" x2="100%" y2="100%">
      <stop offset="0%" style="stop-color:#0f0c29"/>
      <stop offset="50%" style="stop-color:#302b63"/>
      <stop offset="100%" style="stop-color:#24243e"/>
    </linearGradient>
    <linearGradient id="accent" x1="0%" y1="0%" x2="100%" y2="0%">
      <stop offset="0%" style="stop-color:#00d2ff"/>
      <stop offset="100%" style="stop-color:#3a7bd5"/>
    </linearGradient>
  </defs>
  <rect width="800" height="400" fill="url(#bg)" rx="15"/>
  <rect x="30" y="30" width="740" height="340" fill="none" stroke="#3a7bd5" stroke-width="1" rx="10" opacity="0.5"/>
  <circle cx="280" cy="100" r="25" fill="none" stroke="#00d2ff" stroke-width="2"/>
  <text x="280" y="106" text-anchor="middle" fill="#00d2ff" font-family="monospace" font-size="14" font-weight="bold">DNS</text>
  <line x1="310" y1="90" x2="360" y2="75" stroke="#00d2ff" stroke-width="2"/>
  <line x1="310" y1="100" x2="360" y2="100" stroke="#3a7bd5" stroke-width="2"/>
  <line x1="310" y1="110" x2="360" y2="125" stroke="#3a7bd5" stroke-width="2"/>
  <circle cx="380" cy="75" r="18" fill="none" stroke="#00ff88" stroke-width="2"/>
  <text x="380" y="80" text-anchor="middle" fill="#00ff88" font-family="monospace" font-size="11">1</text>
  <circle cx="380" cy="100" r="18" fill="none" stroke="#ff4444" stroke-width="2"/>
  <text x="380" y="105" text-anchor="middle" fill="#ff4444" font-family="monospace" font-size="11">2</text>
  <circle cx="380" cy="125" r="18" fill="none" stroke="#ffaa00" stroke-width="2"/>
  <text x="380" y="130" text-anchor="middle" fill="#ffaa00" font-family="monospace" font-size="11">3</text>
  <text x="420" y="80" fill="#00ff88" font-family="monospace" font-size="16">&#x2713;</text>
  <text x="420" y="105" fill="#ff4444" font-family="monospace" font-size="16">&#x2717;</text>
  <text x="420" y="130" fill="#ffaa00" font-family="monospace" font-size="14">&#x23F3;</text>
  <text x="400" y="200" text-anchor="middle" fill="url(#accent)" font-family="monospace" font-size="36" font-weight="bold">DNSTT-DNS-Changer</text>
  <text x="400" y="235" text-anchor="middle" fill="#8888aa" font-family="monospace" font-size="15">Automatic DNS Failover for DNSTT Tunnel</text>
  <rect x="345" y="248" width="55" height="22" fill="#00d2ff" rx="11"/>
  <text x="372" y="263" text-anchor="middle" fill="#0f0c29" font-family="monospace" font-size="11" font-weight="bold">v1.9.2</text>
  <text x="150" y="310" fill="#00d2ff" font-family="monospace" font-size="13">Auto Failover</text>
  <text x="340" y="310" fill="#00d2ff" font-family="monospace" font-size="13">Health Check</text>
  <text x="540" y="310" fill="#00d2ff" font-family="monospace" font-size="13">CLI Dashboard</text>
  <text x="400" y="355" text-anchor="middle" fill="#555577" font-family="monospace" font-size="13">github.com/Win-Net/dnstt-DNS-changer</text>
</svg>
